<mxfile host="drawio-plugin" modified="2021-03-29T03:19:45.389Z" agent="5.0 (X11; Linux x86_64) AppleWebKit/537.36 (KHTML, like Gecko) Chrome/84.0.4147.105 Safari/537.36" version="13.7.9" etag="19r1lZTJRST_qY03c-l0" type="embed"><diagram id="kpwi-OIawFdETbidx47c" name="Page-1"><mxGraphModel dx="552" dy="387" grid="1" gridSize="10" guides="1" tooltips="1" connect="1" arrows="1" fold="1" page="1" pageScale="1" pageWidth="850" pageHeight="1100" math="0" shadow="0"><root><mxCell id="0"/><mxCell id="1" parent="0"/></root></mxGraphModel></diagram></mxfile>